<?xml version="1.0" encoding="utf-8"?>
<!-- Generator: Adobe Illustrator 26.0.2, SVG Export Plug-In . SVG Version: 6.00 Build 0)  -->
<svg version="1.1" id="Calque_1" shape-rendering="geometricPrecision" focusable="false"
	 xmlns="http://www.w3.org/2000/svg" xmlns:xlink="http://www.w3.org/1999/xlink" x="0px" y="0px" viewBox="0 0 120 120"
	 style="enable-background:new 0 0 120 120;" xml:space="preserve">
<style type="text/css">
	.st0{fill-rule:evenodd;clip-rule:evenodd;fill:#34495E;}
	.st1{fill:#563D7C;}
	.st2{fill-rule:evenodd;clip-rule:evenodd;fill:#FFFFFF;}
	.st3{fill-rule:evenodd;clip-rule:evenodd;fill:#41B883;}
</style>
<g>
	<g>
		<path class="st0" d="M80.7,16.3L60.3,51.7L40,16.3H7.5L60.3,108l53-91.7H80.7z"/>
	</g>
	<g>
		<path class="st1" d="M6.3,0h107.3L59.9,93.2L6.3,0z"/>
		<path class="st2" d="M46.1,12.3h18.6c3.5,0,6.2,0.7,8.3,2.3c2.1,1.7,3.1,3.9,3.1,7.2c0,2-0.4,3.7-1.4,4.9c-1,1.4-2.3,2.5-4.1,3.2
			V30c2.4,0.4,4.2,1.5,5.4,3.4c1.3,1.7,1.8,3.8,1.8,6.5c0,1.5-0.3,3-0.8,4.2c-0.4,1.3-1.3,2.4-2.4,3.4c-1.3,0.8-2.7,1.7-4.5,2.3
			c-1.7,0.6-3.9,0.8-6.3,0.8H46.1V12.3L46.1,12.3z M52.8,28.3h10.8c1.7,0,3-0.6,4.1-1.4c1.1-1,1.5-2.3,1.5-3.9c0-2-0.4-3.4-1.4-4.1
			c-1-0.8-2.4-1.3-4.2-1.3H52.8V28.3L52.8,28.3z M52.8,45.1h11.8c2,0,3.7-0.6,4.6-1.5c1.1-1.1,1.8-2.7,1.8-4.5c0-2-0.6-3.4-1.8-4.4
			c-1.1-1.1-2.7-1.5-4.6-1.5H52.8V45.1z"/>
	</g>
	<g>
		<path class="st3" d="M93.7,22.8L60,81.1L26.3,22.8H3.9L60,120l56.1-97.2H93.7z"/>
	</g>
</g>
</svg>
