<?xml version="1.0" encoding="utf-8"?>
<!-- Generator: Adobe Illustrator 26.0.2, SVG Export Plug-In . SVG Version: 6.00 Build 0)  -->
<svg version="1.1" id="Calque_1" xmlns="http://www.w3.org/2000/svg" xmlns:xlink="http://www.w3.org/1999/xlink" x="0px" y="0px"
	 viewBox="0 0 150 150" style="enable-background:new 0 0 150 150;" xml:space="preserve">
<style type="text/css">
	.st0{fill:#132E44;}
	.st1{fill:url(#SVGID_1_);}
</style>
<rect class="st0" width="150" height="150"/>
<g id="Layer_2">
	<g id="Layer_1-2">
		
			<linearGradient id="SVGID_1_" gradientUnits="userSpaceOnUse" x1="16.0505" y1="28.1958" x2="138.2676" y2="28.1958" gradientTransform="matrix(1 0 0 -1 0 103.1958)">
			<stop  offset="0" style="stop-color:#90CEA1"/>
			<stop  offset="0.56" style="stop-color:#3CBEC9"/>
			<stop  offset="1" style="stop-color:#00B3E5"/>
		</linearGradient>
		<path class="st1" d="M49.8,75L49.8,75c0-6.4,5.2-11.7,11.6-11.7c0,0,0,0,0,0h-0.1C67.8,63.3,73,68.5,73,75c0,0,0,0,0,0l0,0
			c0,6.4-5.2,11.7-11.7,11.7h0h0.1C55,86.7,49.8,81.4,49.8,75z M104.4,54.3h21.7c6.4,0,11.7-5.2,11.7-11.7l0,0
			c0-6.4-5.2-11.7-11.6-11.7c0,0,0,0,0,0h-21.7c-6.4,0-11.7,5.2-11.7,11.7c0,0,0,0,0,0l0,0C92.7,49.1,97.9,54.3,104.4,54.3z
			 M29.7,119h42.2c6.4,0,11.7-5.2,11.7-11.7l0,0l0,0c0-6.4-5.2-11.7-11.6-11.7c0,0,0,0,0,0H29.7c-6.4,0-11.7,5.2-11.7,11.7
			c0,0,0,0,0,0l0,0C18.1,113.8,23.3,119,29.7,119z M85.1,86.7h4.1l9.6-23.4h-5.5l-5.9,15.3h-0.1l-5.8-15.3h-5.9L85.1,86.7z
			 M106.6,86.7h5.2V63.3h-5.2V86.7z M121.2,86.7h16.5v-4.7h-11.3v-4.8h10.1v-4.8h-10.1v-4.4h10.7v-4.8h-15.8L121.2,86.7z M22.7,54.3
			h5.2V35.5h6.7V31H16.1v4.6h6.7V54.3z M41.8,54.3H47V44.2h10v10.1h5.2V31h-5.2v8.7h-10V31h-5.1V54.3z M69,54.3h16.5v-4.8H74.2v-4.8
			h10.1v-4.8H74.2v-4.4h10.7V31H69V54.3z M16.9,86.7H22V68.8h0.1L28,86.7h3.9L38,68.8h0.1v17.9h5.2V63.3h-7.8l-5.4,15.3H30
			l-5.4-15.3h-7.8L16.9,86.7z M90.9,119h8.4c1.7,0,3.4-0.2,5-0.8c1.5-0.5,2.9-1.2,4.2-2.2c1.2-1,2.2-2.2,2.9-3.6
			c0.8-1.6,1.2-3.3,1.1-5c0.1-1.9-0.3-3.7-1.1-5.4c-0.7-1.4-1.7-2.7-3-3.7c-1.3-1-2.8-1.6-4.4-2c-1.7-0.4-3.5-0.7-5.3-0.7h-7.7
			L90.9,119z M96,100.4h3c1,0,2.1,0.1,3.1,0.4c0.9,0.3,1.8,0.7,2.6,1.2c0.7,0.6,1.3,1.3,1.7,2.1c0.5,0.9,0.7,2,0.7,3
			c0,1.2-0.2,2.3-0.7,3.4c-0.4,0.9-1,1.6-1.8,2.2c-0.8,0.6-1.7,1-2.6,1.2c-1.1,0.2-2.2,0.4-3.3,0.4H96L96,100.4z M119.9,119h9.6
			c1,0,2.1-0.1,3.1-0.3c1-0.2,1.9-0.6,2.8-1.1c0.8-0.5,1.5-1.2,2-2c0.6-0.9,0.8-2,0.8-3.1c0-0.7-0.1-1.4-0.4-2.1
			c-0.2-0.6-0.6-1.2-1-1.7c-0.5-0.5-1-0.9-1.6-1.2c-0.7-0.3-1.4-0.6-2.1-0.7v-0.1c1.1-0.3,2.1-1,2.9-1.9c0.8-0.9,1.2-2.1,1.1-3.3
			c0.1-1.1-0.2-2.1-0.8-3.1c-0.5-0.8-1.2-1.4-2-1.8c-0.9-0.4-1.8-0.7-2.8-0.9c-1-0.1-2-0.2-3.1-0.2h-8.7V119z M125.1,100h3.5
			c0.4,0,0.8,0,1.2,0.1c0.4,0.1,0.8,0.2,1.1,0.4c0.3,0.2,0.6,0.4,0.8,0.7c0.2,0.4,0.3,0.8,0.3,1.2c0,0.4-0.1,0.8-0.3,1.2
			c-0.2,0.3-0.4,0.6-0.7,0.8c-0.3,0.2-0.7,0.3-1,0.4c-0.4,0.1-0.8,0.1-1.2,0.1H125L125.1,100z M125.1,109.4h3.9c0.5,0,0.9,0,1.4,0.1
			c0.5,0.1,0.9,0.2,1.3,0.4c0.4,0.2,0.8,0.4,1,0.8c0.3,0.4,0.4,0.8,0.4,1.3c0,0.4-0.1,0.9-0.3,1.3c-0.2,0.3-0.5,0.6-0.8,0.9
			c-0.3,0.2-0.7,0.4-1.1,0.5c-0.4,0.1-0.8,0.1-1.2,0.1H125L125.1,109.4z"/>
	</g>
</g>
</svg>
